<mxfile host="Electron" modified="2024-03-28T16:41:04.672Z" agent="Mozilla/5.0 (Windows NT 10.0; Win64; x64) AppleWebKit/537.36 (KHTML, like Gecko) draw.io/24.1.0 Chrome/120.0.6099.109 Electron/28.1.0 Safari/537.36" etag="e03Db82kuUg8_Kr6ReHJ" version="24.1.0" type="device">
  <diagram name="Página-1" id="jZn85Tw5e062K_5sVM_j">
    <mxGraphModel dx="819" dy="482" grid="1" gridSize="10" guides="1" tooltips="1" connect="1" arrows="1" fold="1" page="1" pageScale="1" pageWidth="827" pageHeight="1169" math="0" shadow="0">
      <root>
        <mxCell id="0" />
        <mxCell id="1" parent="0" />
        <mxCell id="wo6hQcJHvFdP4VvqB_ml-67" style="edgeStyle=orthogonalEdgeStyle;rounded=1;orthogonalLoop=1;jettySize=auto;html=1;endArrow=none;endFill=0;textShadow=1;" edge="1" parent="1" source="wo6hQcJHvFdP4VvqB_ml-50" target="wo6hQcJHvFdP4VvqB_ml-58">
          <mxGeometry relative="1" as="geometry" />
        </mxCell>
        <mxCell id="wo6hQcJHvFdP4VvqB_ml-50" value="Sev" style="text;html=1;align=center;verticalAlign=middle;resizable=0;points=[];autosize=1;strokeColor=none;fillColor=none;textShadow=1;" vertex="1" parent="1">
          <mxGeometry x="50" y="10" width="40" height="30" as="geometry" />
        </mxCell>
        <mxCell id="wo6hQcJHvFdP4VvqB_ml-63" style="edgeStyle=orthogonalEdgeStyle;rounded=1;orthogonalLoop=1;jettySize=auto;html=1;endArrow=none;endFill=0;textShadow=1;" edge="1" parent="1" source="wo6hQcJHvFdP4VvqB_ml-51" target="wo6hQcJHvFdP4VvqB_ml-59">
          <mxGeometry relative="1" as="geometry" />
        </mxCell>
        <mxCell id="wo6hQcJHvFdP4VvqB_ml-51" value="Dum" style="text;html=1;align=center;verticalAlign=middle;resizable=0;points=[];autosize=1;strokeColor=none;fillColor=none;textShadow=1;" vertex="1" parent="1">
          <mxGeometry x="10" y="10" width="50" height="30" as="geometry" />
        </mxCell>
        <mxCell id="wo6hQcJHvFdP4VvqB_ml-64" style="edgeStyle=orthogonalEdgeStyle;rounded=1;orthogonalLoop=1;jettySize=auto;html=1;endArrow=none;endFill=0;textShadow=1;" edge="1" parent="1" source="wo6hQcJHvFdP4VvqB_ml-52" target="wo6hQcJHvFdP4VvqB_ml-60">
          <mxGeometry relative="1" as="geometry" />
        </mxCell>
        <mxCell id="wo6hQcJHvFdP4VvqB_ml-52" value="HaVP" style="text;html=1;align=center;verticalAlign=middle;resizable=0;points=[];autosize=1;strokeColor=none;fillColor=none;textShadow=1;" vertex="1" parent="1">
          <mxGeometry x="170" y="10" width="50" height="30" as="geometry" />
        </mxCell>
        <mxCell id="wo6hQcJHvFdP4VvqB_ml-66" style="edgeStyle=orthogonalEdgeStyle;rounded=1;orthogonalLoop=1;jettySize=auto;html=1;endArrow=none;endFill=0;textShadow=1;" edge="1" parent="1" source="wo6hQcJHvFdP4VvqB_ml-53" target="wo6hQcJHvFdP4VvqB_ml-61">
          <mxGeometry relative="1" as="geometry" />
        </mxCell>
        <mxCell id="wo6hQcJHvFdP4VvqB_ml-53" value="Sev_N" style="text;html=1;align=center;verticalAlign=middle;resizable=0;points=[];autosize=1;strokeColor=none;fillColor=none;textShadow=1;" vertex="1" parent="1">
          <mxGeometry x="80" y="10" width="60" height="30" as="geometry" />
        </mxCell>
        <mxCell id="wo6hQcJHvFdP4VvqB_ml-65" style="edgeStyle=orthogonalEdgeStyle;rounded=1;orthogonalLoop=1;jettySize=auto;html=1;endArrow=none;endFill=0;textShadow=1;" edge="1" parent="1" source="wo6hQcJHvFdP4VvqB_ml-54" target="wo6hQcJHvFdP4VvqB_ml-62">
          <mxGeometry relative="1" as="geometry" />
        </mxCell>
        <mxCell id="wo6hQcJHvFdP4VvqB_ml-54" value="HaV" style="text;html=1;align=center;verticalAlign=middle;resizable=0;points=[];autosize=1;strokeColor=none;fillColor=none;textShadow=1;" vertex="1" parent="1">
          <mxGeometry x="130" y="10" width="50" height="30" as="geometry" />
        </mxCell>
        <mxCell id="wo6hQcJHvFdP4VvqB_ml-58" value="Sev" style="text;html=1;align=center;verticalAlign=middle;resizable=0;points=[];autosize=1;strokeColor=none;fillColor=none;" vertex="1" parent="1">
          <mxGeometry x="50" y="420" width="40" height="30" as="geometry" />
        </mxCell>
        <mxCell id="wo6hQcJHvFdP4VvqB_ml-59" value="Dum" style="text;html=1;align=center;verticalAlign=middle;resizable=0;points=[];autosize=1;strokeColor=none;fillColor=none;" vertex="1" parent="1">
          <mxGeometry x="10" y="420" width="50" height="30" as="geometry" />
        </mxCell>
        <mxCell id="wo6hQcJHvFdP4VvqB_ml-60" value="HaVP" style="text;html=1;align=center;verticalAlign=middle;resizable=0;points=[];autosize=1;strokeColor=none;fillColor=none;" vertex="1" parent="1">
          <mxGeometry x="170" y="420" width="50" height="30" as="geometry" />
        </mxCell>
        <mxCell id="wo6hQcJHvFdP4VvqB_ml-61" value="Sev_N" style="text;html=1;align=center;verticalAlign=middle;resizable=0;points=[];autosize=1;strokeColor=none;fillColor=none;" vertex="1" parent="1">
          <mxGeometry x="80" y="420" width="60" height="30" as="geometry" />
        </mxCell>
        <mxCell id="wo6hQcJHvFdP4VvqB_ml-62" value="HaV" style="text;html=1;align=center;verticalAlign=middle;resizable=0;points=[];autosize=1;strokeColor=none;fillColor=none;" vertex="1" parent="1">
          <mxGeometry x="130" y="420" width="50" height="30" as="geometry" />
        </mxCell>
        <mxCell id="wo6hQcJHvFdP4VvqB_ml-68" style="edgeStyle=orthogonalEdgeStyle;rounded=1;orthogonalLoop=1;jettySize=auto;html=1;exitX=0;exitY=0.25;exitDx=0;exitDy=0;exitPerimeter=0;endArrow=oval;endFill=1;textShadow=1;" edge="1" parent="1" source="wo6hQcJHvFdP4VvqB_ml-36">
          <mxGeometry relative="1" as="geometry">
            <mxPoint x="155" y="65.24137931034488" as="targetPoint" />
            <mxPoint x="285" y="65" as="sourcePoint" />
          </mxGeometry>
        </mxCell>
        <mxCell id="wo6hQcJHvFdP4VvqB_ml-70" style="edgeStyle=orthogonalEdgeStyle;rounded=1;orthogonalLoop=1;jettySize=auto;html=1;exitX=0;exitY=0.75;exitDx=0;exitDy=0;exitPerimeter=0;endArrow=oval;endFill=1;textShadow=1;" edge="1" parent="1" source="wo6hQcJHvFdP4VvqB_ml-36">
          <mxGeometry relative="1" as="geometry">
            <mxPoint x="70" y="94.89655172413791" as="targetPoint" />
          </mxGeometry>
        </mxCell>
        <mxCell id="wo6hQcJHvFdP4VvqB_ml-36" value="HARRY VENCER&lt;div&gt;SEVERO DAR AULA&lt;/div&gt;" style="verticalLabelPosition=bottom;shadow=0;dashed=0;align=center;html=1;verticalAlign=top;shape=mxgraph.electrical.logic_gates.logic_gate;operation=and;rounded=1;textShadow=1;" vertex="1" parent="1">
          <mxGeometry x="290" y="50" width="100" height="60" as="geometry" />
        </mxCell>
        <mxCell id="wo6hQcJHvFdP4VvqB_ml-71" style="edgeStyle=orthogonalEdgeStyle;rounded=1;orthogonalLoop=1;jettySize=auto;html=1;exitX=0;exitY=0.25;exitDx=0;exitDy=0;exitPerimeter=0;endArrow=oval;endFill=1;textShadow=1;" edge="1" parent="1" source="wo6hQcJHvFdP4VvqB_ml-41">
          <mxGeometry relative="1" as="geometry">
            <mxPoint x="35" y="185.24137931034488" as="targetPoint" />
            <mxPoint x="285" y="185" as="sourcePoint" />
          </mxGeometry>
        </mxCell>
        <mxCell id="wo6hQcJHvFdP4VvqB_ml-72" style="edgeStyle=orthogonalEdgeStyle;rounded=1;orthogonalLoop=1;jettySize=auto;html=1;exitX=0;exitY=0.75;exitDx=0;exitDy=0;exitPerimeter=0;endArrow=oval;endFill=1;textShadow=1;" edge="1" parent="1" source="wo6hQcJHvFdP4VvqB_ml-41">
          <mxGeometry relative="1" as="geometry">
            <mxPoint x="110" y="214.8965517241379" as="targetPoint" />
          </mxGeometry>
        </mxCell>
        <mxCell id="wo6hQcJHvFdP4VvqB_ml-41" value="DUMBLEDORE EM HOG&lt;div&gt;SEVERO NÃO DAR AULA&lt;/div&gt;" style="verticalLabelPosition=bottom;shadow=0;dashed=0;align=center;html=1;verticalAlign=top;shape=mxgraph.electrical.logic_gates.logic_gate;operation=and;rounded=1;textShadow=1;" vertex="1" parent="1">
          <mxGeometry x="290" y="170" width="100" height="60" as="geometry" />
        </mxCell>
        <mxCell id="wo6hQcJHvFdP4VvqB_ml-73" style="edgeStyle=orthogonalEdgeStyle;rounded=1;orthogonalLoop=1;jettySize=auto;html=1;exitX=0;exitY=0.16666666666666666;exitDx=0;exitDy=0;exitPerimeter=0;endArrow=oval;endFill=1;textShadow=1;" edge="1" parent="1" source="wo6hQcJHvFdP4VvqB_ml-11">
          <mxGeometry relative="1" as="geometry">
            <mxPoint x="70" y="344.8965517241379" as="targetPoint" />
          </mxGeometry>
        </mxCell>
        <mxCell id="wo6hQcJHvFdP4VvqB_ml-75" style="edgeStyle=orthogonalEdgeStyle;rounded=1;orthogonalLoop=1;jettySize=auto;html=1;exitX=0;exitY=0.5;exitDx=0;exitDy=0;exitPerimeter=0;endArrow=oval;endFill=1;textShadow=1;" edge="1" parent="1" source="wo6hQcJHvFdP4VvqB_ml-11">
          <mxGeometry relative="1" as="geometry">
            <mxPoint x="196" y="364.8965517241379" as="targetPoint" />
            <mxPoint x="286" y="365" as="sourcePoint" />
          </mxGeometry>
        </mxCell>
        <mxCell id="wo6hQcJHvFdP4VvqB_ml-76" style="edgeStyle=orthogonalEdgeStyle;rounded=1;orthogonalLoop=1;jettySize=auto;html=1;exitX=0;exitY=0.8333333333333333;exitDx=0;exitDy=0;exitPerimeter=0;endArrow=oval;endFill=1;textShadow=1;" edge="1" parent="1" source="wo6hQcJHvFdP4VvqB_ml-11">
          <mxGeometry relative="1" as="geometry">
            <mxPoint x="35" y="384.8965517241379" as="targetPoint" />
            <mxPoint x="285" y="385" as="sourcePoint" />
          </mxGeometry>
        </mxCell>
        <mxCell id="wo6hQcJHvFdP4VvqB_ml-11" value="&lt;div&gt;SEVERO DAR AULA&lt;/div&gt;&lt;div&gt;HARRY VENCER PRÓXIMO&lt;/div&gt;&lt;div&gt;DUMBLEDORE EM HOG&lt;br&gt;&lt;/div&gt;" style="verticalLabelPosition=bottom;shadow=0;dashed=0;align=center;html=1;verticalAlign=top;shape=mxgraph.electrical.logic_gates.logic_gate;operation=or;rounded=1;numInputs=3;textShadow=1;" vertex="1" parent="1">
          <mxGeometry x="290" y="335" width="100" height="60" as="geometry" />
        </mxCell>
        <mxCell id="wo6hQcJHvFdP4VvqB_ml-87" style="edgeStyle=orthogonalEdgeStyle;rounded=1;orthogonalLoop=1;jettySize=auto;html=1;exitX=0;exitY=0.25;exitDx=0;exitDy=0;exitPerimeter=0;endArrow=oval;endFill=1;textShadow=1;" edge="1" parent="1" source="wo6hQcJHvFdP4VvqB_ml-17">
          <mxGeometry relative="1" as="geometry">
            <mxPoint x="235" y="300" as="targetPoint" />
            <mxPoint x="425" y="335" as="sourcePoint" />
            <Array as="points">
              <mxPoint x="375" y="335" />
              <mxPoint x="375" y="300" />
            </Array>
          </mxGeometry>
        </mxCell>
        <mxCell id="wo6hQcJHvFdP4VvqB_ml-17" value="" style="verticalLabelPosition=bottom;shadow=0;dashed=0;align=center;html=1;verticalAlign=top;shape=mxgraph.electrical.logic_gates.logic_gate;operation=and;rounded=1;textShadow=1;" vertex="1" parent="1">
          <mxGeometry x="400" y="320" width="100" height="60" as="geometry" />
        </mxCell>
        <mxCell id="wo6hQcJHvFdP4VvqB_ml-18" style="edgeStyle=orthogonalEdgeStyle;rounded=1;orthogonalLoop=1;jettySize=auto;html=1;exitX=1;exitY=0.5;exitDx=0;exitDy=0;exitPerimeter=0;entryX=0;entryY=0.75;entryDx=0;entryDy=0;entryPerimeter=0;endArrow=none;endFill=0;textShadow=1;" edge="1" parent="1" source="wo6hQcJHvFdP4VvqB_ml-11" target="wo6hQcJHvFdP4VvqB_ml-17">
          <mxGeometry relative="1" as="geometry" />
        </mxCell>
        <mxCell id="wo6hQcJHvFdP4VvqB_ml-77" style="edgeStyle=orthogonalEdgeStyle;rounded=1;orthogonalLoop=1;jettySize=auto;html=1;endArrow=none;endFill=0;textShadow=1;" edge="1" parent="1" source="wo6hQcJHvFdP4VvqB_ml-78" target="wo6hQcJHvFdP4VvqB_ml-79">
          <mxGeometry relative="1" as="geometry" />
        </mxCell>
        <mxCell id="wo6hQcJHvFdP4VvqB_ml-78" value="Her" style="text;html=1;align=center;verticalAlign=middle;resizable=0;points=[];autosize=1;strokeColor=none;fillColor=none;textShadow=1;" vertex="1" parent="1">
          <mxGeometry x="215" y="10" width="40" height="30" as="geometry" />
        </mxCell>
        <mxCell id="wo6hQcJHvFdP4VvqB_ml-79" value="Her" style="text;html=1;align=center;verticalAlign=middle;resizable=0;points=[];autosize=1;strokeColor=none;fillColor=none;" vertex="1" parent="1">
          <mxGeometry x="215" y="420" width="40" height="30" as="geometry" />
        </mxCell>
        <mxCell id="wo6hQcJHvFdP4VvqB_ml-81" value="" style="verticalLabelPosition=bottom;shadow=0;dashed=0;align=center;html=1;verticalAlign=top;shape=mxgraph.electrical.logic_gates.logic_gate;operation=or;rounded=1;numInputs=3;textShadow=1;" vertex="1" parent="1">
          <mxGeometry x="540" y="220" width="100" height="60" as="geometry" />
        </mxCell>
        <mxCell id="wo6hQcJHvFdP4VvqB_ml-82" style="edgeStyle=orthogonalEdgeStyle;rounded=1;orthogonalLoop=1;jettySize=auto;html=1;exitX=1;exitY=0.5;exitDx=0;exitDy=0;exitPerimeter=0;entryX=0;entryY=0.16666666666666666;entryDx=0;entryDy=0;entryPerimeter=0;endArrow=none;endFill=0;textShadow=1;" edge="1" parent="1" source="wo6hQcJHvFdP4VvqB_ml-36" target="wo6hQcJHvFdP4VvqB_ml-81">
          <mxGeometry relative="1" as="geometry">
            <Array as="points">
              <mxPoint x="470" y="80" />
              <mxPoint x="470" y="230" />
            </Array>
          </mxGeometry>
        </mxCell>
        <mxCell id="wo6hQcJHvFdP4VvqB_ml-83" style="edgeStyle=orthogonalEdgeStyle;rounded=1;orthogonalLoop=1;jettySize=auto;html=1;exitX=1;exitY=0.5;exitDx=0;exitDy=0;exitPerimeter=0;entryX=0;entryY=0.5;entryDx=0;entryDy=0;entryPerimeter=0;endArrow=none;endFill=0;textShadow=1;" edge="1" parent="1" source="wo6hQcJHvFdP4VvqB_ml-41" target="wo6hQcJHvFdP4VvqB_ml-81">
          <mxGeometry relative="1" as="geometry">
            <Array as="points">
              <mxPoint x="450" y="200" />
              <mxPoint x="450" y="250" />
            </Array>
          </mxGeometry>
        </mxCell>
        <mxCell id="wo6hQcJHvFdP4VvqB_ml-84" style="edgeStyle=orthogonalEdgeStyle;rounded=1;orthogonalLoop=1;jettySize=auto;html=1;exitX=1;exitY=0.5;exitDx=0;exitDy=0;exitPerimeter=0;entryX=0;entryY=0.8333333333333333;entryDx=0;entryDy=0;entryPerimeter=0;endArrow=none;endFill=0;textShadow=1;" edge="1" parent="1" source="wo6hQcJHvFdP4VvqB_ml-17" target="wo6hQcJHvFdP4VvqB_ml-81">
          <mxGeometry relative="1" as="geometry" />
        </mxCell>
        <mxCell id="wo6hQcJHvFdP4VvqB_ml-85" value="&lt;span id=&quot;docs-internal-guid-f2258b3a-7fff-465f-809c-f6f44d3002fe&quot;&gt;&lt;span style=&quot;font-size: 11pt; font-family: Arial, sans-serif; background-color: transparent; font-variant-numeric: normal; font-variant-east-asian: normal; font-variant-alternates: normal; font-variant-position: normal; vertical-align: baseline; white-space: pre-wrap;&quot;&gt;R_DESC&lt;/span&gt;&lt;/span&gt;" style="text;html=1;align=center;verticalAlign=middle;resizable=0;points=[];autosize=1;strokeColor=none;fillColor=none;fontColor=default;textShadow=1;" vertex="1" parent="1">
          <mxGeometry x="640" y="235" width="80" height="30" as="geometry" />
        </mxCell>
        <mxCell id="wo6hQcJHvFdP4VvqB_ml-89" value="&lt;h1 style=&quot;margin-top: 0px; padding-left: 20px; padding-right: 20px;&quot;&gt;&lt;span id=&quot;docs-internal-guid-02a18f81-7fff-af73-265d-ae50ddb87528&quot; style=&quot;font-weight:normal;&quot;&gt;&lt;p style=&quot;line-height:1.38;margin-top:0pt;margin-bottom:10pt;&quot; dir=&quot;ltr&quot;&gt;&lt;span style=&quot;font-size: 13pt; font-family: Arial, sans-serif; background-color: transparent; font-weight: 700; font-variant-numeric: normal; font-variant-east-asian: normal; font-variant-alternates: normal; font-variant-position: normal; vertical-align: baseline; white-space-collapse: preserve;&quot;&gt;CASOS POSSÍVEIS PARA O DESAFIO 2:&lt;/span&gt;&lt;/p&gt;&lt;p style=&quot;line-height: 1.38; margin-top: 0pt; margin-bottom: 0px; margin-right: 0px;&quot; dir=&quot;ltr&quot;&gt;&lt;span style=&quot;font-size: 11pt; font-family: Arial, sans-serif; background-color: transparent; font-variant-numeric: normal; font-variant-east-asian: normal; font-variant-alternates: normal; font-variant-position: normal; vertical-align: baseline; white-space-collapse: preserve;&quot;&gt;Ronie ser descongelado:&lt;/span&gt;&lt;/p&gt;&lt;ol style=&quot;margin-top:0;margin-bottom:0;padding-inline-start:48px;&quot;&gt;&lt;li aria-level=&quot;1&quot; style=&quot;list-style-type: decimal; font-size: 11pt; font-family: Arial, sans-serif; background-color: transparent; font-variant-numeric: normal; font-variant-east-asian: normal; font-variant-alternates: normal; font-variant-position: normal; vertical-align: baseline; white-space: pre;&quot; dir=&quot;ltr&quot;&gt;&lt;p role=&quot;presentation&quot; style=&quot;line-height:1.38;margin-top:0pt;margin-bottom:0pt;&quot; dir=&quot;ltr&quot;&gt;&lt;span style=&quot;font-size: 11pt; background-color: transparent; font-variant-numeric: normal; font-variant-east-asian: normal; font-variant-alternates: normal; font-variant-position: normal; vertical-align: baseline; text-wrap: wrap;&quot;&gt;Hermione tirar mais que sete e (Harry vencer o próximo ou Dumbledore em Hogwarts ou Prof. Severo dar aula)&lt;/span&gt;&lt;/p&gt;&lt;/li&gt;&lt;li aria-level=&quot;1&quot; style=&quot;list-style-type: decimal; font-size: 11pt; font-family: Arial, sans-serif; background-color: transparent; font-variant-numeric: normal; font-variant-east-asian: normal; font-variant-alternates: normal; font-variant-position: normal; vertical-align: baseline; white-space: pre;&quot; dir=&quot;ltr&quot;&gt;&lt;p role=&quot;presentation&quot; style=&quot;line-height:1.38;margin-top:0pt;margin-bottom:0pt;&quot; dir=&quot;ltr&quot;&gt;&lt;span style=&quot;font-size: 11pt; background-color: transparent; font-variant-numeric: normal; font-variant-east-asian: normal; font-variant-alternates: normal; font-variant-position: normal; vertical-align: baseline; text-wrap: wrap;&quot;&gt;Harry vencer e o prof. Severo der aula&amp;nbsp;&lt;/span&gt;&lt;/p&gt;&lt;/li&gt;&lt;li aria-level=&quot;1&quot; style=&quot;list-style-type: decimal; font-size: 11pt; font-family: Arial, sans-serif; background-color: transparent; font-variant-numeric: normal; font-variant-east-asian: normal; font-variant-alternates: normal; font-variant-position: normal; vertical-align: baseline; white-space: pre;&quot; dir=&quot;ltr&quot;&gt;&lt;p role=&quot;presentation&quot; style=&quot;line-height:1.38;margin-top:0pt;margin-bottom:10pt;&quot; dir=&quot;ltr&quot;&gt;&lt;span style=&quot;font-size: 11pt; background-color: transparent; font-variant-numeric: normal; font-variant-east-asian: normal; font-variant-alternates: normal; font-variant-position: normal; vertical-align: baseline; text-wrap: wrap;&quot;&gt;Dumbledore em Hogwarts e prof. Severo &lt;/span&gt;&lt;span style=&quot;font-size: 11pt; color: rgb(255, 0, 0); background-color: transparent; font-variant-numeric: normal; font-variant-east-asian: normal; font-variant-alternates: normal; font-variant-position: normal; vertical-align: baseline; text-wrap: wrap;&quot;&gt;NÃO&lt;/span&gt;&lt;span style=&quot;font-size: 11pt; background-color: transparent; font-variant-numeric: normal; font-variant-east-asian: normal; font-variant-alternates: normal; font-variant-position: normal; vertical-align: baseline; text-wrap: wrap;&quot;&gt; dar aula&lt;/span&gt;&lt;/p&gt;&lt;/li&gt;&lt;/ol&gt;&lt;p style=&quot;line-height: 1.38; margin-top: 0pt; margin-bottom: 0px;&quot; dir=&quot;ltr&quot;&gt;&lt;span style=&quot;font-size: 11pt; font-family: Arial, sans-serif; background-color: transparent; font-variant-numeric: normal; font-variant-east-asian: normal; font-variant-alternates: normal; font-variant-position: normal; vertical-align: baseline; white-space-collapse: preserve;&quot;&gt;Ronie NÃO ser descongelado:&lt;/span&gt;&lt;/p&gt;&lt;ol style=&quot;margin-top:0;margin-bottom:0;padding-inline-start:48px;&quot;&gt;&lt;li aria-level=&quot;1&quot; style=&quot;list-style-type: decimal; font-size: 11pt; font-family: Arial, sans-serif; background-color: transparent; font-variant-numeric: normal; font-variant-east-asian: normal; font-variant-alternates: normal; font-variant-position: normal; vertical-align: baseline; white-space: pre;&quot; dir=&quot;ltr&quot;&gt;&lt;p role=&quot;presentation&quot; style=&quot;line-height:1.38;margin-top:0pt;margin-bottom:0pt;&quot; dir=&quot;ltr&quot;&gt;&lt;span style=&quot;font-size: 11pt; background-color: transparent; font-variant-numeric: normal; font-variant-east-asian: normal; font-variant-alternates: normal; font-variant-position: normal; vertical-align: baseline; text-wrap: wrap;&quot;&gt;(Dumbledore em Hogwarts ou prof. Severo der aula) e &lt;/span&gt;&lt;span style=&quot;font-size: 11pt; background-color: transparent; font-variant-numeric: normal; font-variant-east-asian: normal; font-variant-alternates: normal; font-variant-position: normal; text-decoration-line: underline; text-decoration-skip-ink: none; vertical-align: baseline; text-wrap: wrap;&quot;&gt;Harry vencer&lt;/span&gt;&lt;/p&gt;&lt;/li&gt;&lt;li aria-level=&quot;1&quot; style=&quot;list-style-type: decimal; font-size: 11pt; font-family: Arial, sans-serif; background-color: transparent; font-variant-numeric: normal; font-variant-east-asian: normal; font-variant-alternates: normal; font-variant-position: normal; vertical-align: baseline; white-space: pre;&quot; dir=&quot;ltr&quot;&gt;&lt;p role=&quot;presentation&quot; style=&quot;line-height: 1.38; margin-top: 0pt; margin-bottom: 0px;&quot; dir=&quot;ltr&quot;&gt;&lt;span style=&quot;font-size: 11pt; background-color: transparent; font-variant-numeric: normal; font-variant-east-asian: normal; font-variant-alternates: normal; font-variant-position: normal; vertical-align: baseline; text-wrap: wrap;&quot;&gt;Harry vencer e &lt;/span&gt;&lt;span style=&quot;font-size: 11pt; background-color: transparent; font-variant-numeric: normal; font-variant-east-asian: normal; font-variant-alternates: normal; font-variant-position: normal; text-decoration-line: underline; text-decoration-skip-ink: none; vertical-align: baseline; text-wrap: wrap;&quot;&gt;Dumbledore em Hogwarts&lt;/span&gt;&lt;/p&gt;&lt;/li&gt;&lt;li aria-level=&quot;1&quot; style=&quot;list-style-type: decimal; font-size: 11pt; font-family: Arial, sans-serif; background-color: transparent; font-variant-numeric: normal; font-variant-east-asian: normal; font-variant-alternates: normal; font-variant-position: normal; vertical-align: baseline; white-space: pre;&quot; dir=&quot;ltr&quot;&gt;&lt;p role=&quot;presentation&quot; style=&quot;line-height:1.38;margin-top:0pt;margin-bottom:10pt;&quot; dir=&quot;ltr&quot;&gt;&lt;span style=&quot;background-color: transparent; font-size: 11pt; text-wrap: wrap; font-variant-numeric: normal; font-variant-east-asian: normal; font-variant-alternates: normal; font-variant-position: normal; vertical-align: baseline;&quot;&gt;Dumbledore em Hogwarts e &lt;/span&gt;&lt;span style=&quot;background-color: transparent; font-size: 11pt; text-wrap: wrap; font-variant-numeric: normal; font-variant-east-asian: normal; font-variant-alternates: normal; font-variant-position: normal; text-decoration-line: underline; text-decoration-skip-ink: none; vertical-align: baseline;&quot;&gt;prof. Severo dar aula&lt;/span&gt;&lt;/p&gt;&lt;/li&gt;&lt;/ol&gt;&lt;/span&gt;&lt;/h1&gt;" style="text;html=1;whiteSpace=wrap;overflow=hidden;rounded=1;shadow=0;textShadow=0;strokeColor=default;arcSize=9;" vertex="1" parent="1">
          <mxGeometry x="20" y="490" width="480" height="330" as="geometry" />
        </mxCell>
        <mxCell id="wo6hQcJHvFdP4VvqB_ml-90" value="&lt;p style=&quot;line-height: 38%;&quot;&gt;&lt;/p&gt;&lt;h1 style=&quot;margin-top: 0px; padding-left: 20px; padding-right: 20px; margin-bottom: 0px; line-height: 20%;&quot;&gt;&lt;span id=&quot;docs-internal-guid-02a18f81-7fff-af73-265d-ae50ddb87528&quot; style=&quot;font-weight:normal;&quot;&gt;&lt;p style=&quot;line-height: 20%; margin-top: 0pt; margin-bottom: 10pt;&quot; dir=&quot;ltr&quot;&gt;&lt;span style=&quot;font-family: Arial, sans-serif; font-size: 17.3333px; font-weight: 700; white-space-collapse: preserve;&quot;&gt;REPRESENTAÇÃO BINÁRIA:&lt;/span&gt;&lt;span style=&quot;background-color: transparent; font-family: Arial, sans-serif; font-size: 11pt; white-space-collapse: preserve;&quot;&gt;&lt;br&gt;&lt;/span&gt;&lt;/p&gt;&lt;p style=&quot;line-height: 20%; margin-top: 0pt; margin-bottom: 10pt;&quot; dir=&quot;ltr&quot;&gt;&lt;span style=&quot;font-family: Arial, sans-serif; font-size: 17.3333px; font-weight: 700; white-space-collapse: preserve;&quot;&gt;(ENTRADA)&lt;/span&gt;&lt;/p&gt;&lt;p style=&quot;line-height: 69%; margin-top: 0pt; margin-bottom: 0px;&quot; dir=&quot;ltr&quot;&gt;&lt;span style=&quot;background-color: transparent; font-family: Arial, sans-serif; font-size: 11pt; white-space-collapse: preserve;&quot;&gt;Dumbledore em Hogwarts:&lt;/span&gt;&lt;br&gt;&lt;/p&gt;&lt;ul style=&quot;margin-top: 0px; margin-bottom: 0px; padding-inline-start: 48px; line-height: 90%;&quot;&gt;&lt;li aria-level=&quot;1&quot; style=&quot;list-style-type:disc;font-size:11pt;font-family:Arial,sans-serif;color:#000000;background-color:transparent;font-weight:400;font-style:normal;font-variant:normal;text-decoration:none;vertical-align:baseline;white-space:pre;&quot; dir=&quot;ltr&quot;&gt;&lt;p role=&quot;presentation&quot; style=&quot;line-height: 90%; margin-top: 0pt; margin-bottom: 10pt;&quot; dir=&quot;ltr&quot;&gt;&lt;span style=&quot;font-size:11pt;font-family:Arial,sans-serif;color:#000000;background-color:transparent;font-weight:400;font-style:normal;font-variant:normal;text-decoration:none;vertical-align:baseline;white-space:pre;white-space:pre-wrap;&quot;&gt;Dum = 1&lt;/span&gt;&lt;/p&gt;&lt;/li&gt;&lt;/ul&gt;&lt;p style=&quot;line-height: 90%; margin-top: 0pt; margin-bottom: 0px;&quot; dir=&quot;ltr&quot;&gt;&lt;span style=&quot;font-size:11pt;font-family:Arial,sans-serif;color:#000000;background-color:transparent;font-weight:400;font-style:normal;font-variant:normal;text-decoration:none;vertical-align:baseline;white-space:pre;white-space:pre-wrap;&quot;&gt;prof. Severo der aula:&lt;/span&gt;&lt;/p&gt;&lt;ul style=&quot;margin-top: 0px; margin-bottom: 0px; padding-inline-start: 48px; line-height: 90%;&quot;&gt;&lt;li aria-level=&quot;1&quot; style=&quot;list-style-type:disc;font-size:11pt;font-family:Arial,sans-serif;color:#000000;background-color:transparent;font-weight:400;font-style:normal;font-variant:normal;text-decoration:none;vertical-align:baseline;white-space:pre;&quot; dir=&quot;ltr&quot;&gt;&lt;p role=&quot;presentation&quot; style=&quot;line-height: 90%; margin-top: 0pt; margin-bottom: 0pt;&quot; dir=&quot;ltr&quot;&gt;&lt;span style=&quot;font-size:11pt;font-family:Arial,sans-serif;color:#000000;background-color:transparent;font-weight:400;font-style:normal;font-variant:normal;text-decoration:none;vertical-align:baseline;white-space:pre;white-space:pre-wrap;&quot;&gt;Sev = 1&lt;/span&gt;&lt;/p&gt;&lt;/li&gt;&lt;li aria-level=&quot;1&quot; style=&quot;list-style-type:disc;font-size:11pt;font-family:Arial,sans-serif;color:#000000;background-color:transparent;font-weight:400;font-style:normal;font-variant:normal;text-decoration:none;vertical-align:baseline;white-space:pre;&quot; dir=&quot;ltr&quot;&gt;&lt;p role=&quot;presentation&quot; style=&quot;line-height: 90%; margin-top: 0pt; margin-bottom: 10pt;&quot; dir=&quot;ltr&quot;&gt;&lt;span style=&quot;font-size:11pt;font-family:Arial,sans-serif;color:#000000;background-color:transparent;font-weight:400;font-style:normal;font-variant:normal;text-decoration:none;vertical-align:baseline;white-space:pre;white-space:pre-wrap;&quot;&gt;Sev_N = 0&lt;/span&gt;&lt;/p&gt;&lt;/li&gt;&lt;/ul&gt;&lt;p style=&quot;line-height: 90%; margin-top: 0pt; margin-bottom: 0px;&quot; dir=&quot;ltr&quot;&gt;&lt;span style=&quot;font-size:11pt;font-family:Arial,sans-serif;color:#000000;background-color:transparent;font-weight:400;font-style:normal;font-variant:normal;text-decoration:none;vertical-align:baseline;white-space:pre;white-space:pre-wrap;&quot;&gt;prof. Severo NÃO der aula:&lt;/span&gt;&lt;/p&gt;&lt;ul style=&quot;margin-top: 0px; margin-bottom: 0px; padding-inline-start: 48px; line-height: 90%;&quot;&gt;&lt;li aria-level=&quot;1&quot; style=&quot;list-style-type:disc;font-size:11pt;font-family:Arial,sans-serif;color:#000000;background-color:transparent;font-weight:400;font-style:normal;font-variant:normal;text-decoration:none;vertical-align:baseline;white-space:pre;&quot; dir=&quot;ltr&quot;&gt;&lt;p role=&quot;presentation&quot; style=&quot;line-height: 90%; margin-top: 0pt; margin-bottom: 0pt;&quot; dir=&quot;ltr&quot;&gt;&lt;span style=&quot;font-size:11pt;font-family:Arial,sans-serif;color:#000000;background-color:transparent;font-weight:400;font-style:normal;font-variant:normal;text-decoration:none;vertical-align:baseline;white-space:pre;white-space:pre-wrap;&quot;&gt;Sev_N = 1&lt;/span&gt;&lt;/p&gt;&lt;/li&gt;&lt;li aria-level=&quot;1&quot; style=&quot;list-style-type:disc;font-size:11pt;font-family:Arial,sans-serif;color:#000000;background-color:transparent;font-weight:400;font-style:normal;font-variant:normal;text-decoration:none;vertical-align:baseline;white-space:pre;&quot; dir=&quot;ltr&quot;&gt;&lt;p role=&quot;presentation&quot; style=&quot;line-height: 90%; margin-top: 0pt; margin-bottom: 10pt;&quot; dir=&quot;ltr&quot;&gt;&lt;span style=&quot;font-size:11pt;font-family:Arial,sans-serif;color:#000000;background-color:transparent;font-weight:400;font-style:normal;font-variant:normal;text-decoration:none;vertical-align:baseline;white-space:pre;white-space:pre-wrap;&quot;&gt;Sev = 0&lt;/span&gt;&lt;/p&gt;&lt;/li&gt;&lt;/ul&gt;&lt;p style=&quot;line-height: 90%; margin-top: 0pt; margin-bottom: 0px;&quot; dir=&quot;ltr&quot;&gt;&lt;span style=&quot;font-size:11pt;font-family:Arial,sans-serif;color:#000000;background-color:transparent;font-weight:400;font-style:normal;font-variant:normal;text-decoration:none;vertical-align:baseline;white-space:pre;white-space:pre-wrap;&quot;&gt;Hermione tirar mais que sete:&lt;/span&gt;&lt;/p&gt;&lt;ul style=&quot;margin-top: 0px; margin-bottom: 0px; padding-inline-start: 48px; line-height: 90%;&quot;&gt;&lt;li aria-level=&quot;1&quot; style=&quot;list-style-type:disc;font-size:11pt;font-family:Arial,sans-serif;color:#000000;background-color:transparent;font-weight:400;font-style:normal;font-variant:normal;text-decoration:none;vertical-align:baseline;white-space:pre;&quot; dir=&quot;ltr&quot;&gt;&lt;p role=&quot;presentation&quot; style=&quot;line-height: 90%; margin-top: 0pt; margin-bottom: 10pt;&quot; dir=&quot;ltr&quot;&gt;&lt;span style=&quot;font-size:11pt;font-family:Arial,sans-serif;color:#000000;background-color:transparent;font-weight:400;font-style:normal;font-variant:normal;text-decoration:none;vertical-align:baseline;white-space:pre;white-space:pre-wrap;&quot;&gt;Her = 1&lt;/span&gt;&lt;/p&gt;&lt;/li&gt;&lt;/ul&gt;&lt;p style=&quot;line-height: 90%; margin-top: 0pt; margin-bottom: 0px;&quot; dir=&quot;ltr&quot;&gt;&lt;span style=&quot;font-size:11pt;font-family:Arial,sans-serif;color:#000000;background-color:transparent;font-weight:400;font-style:normal;font-variant:normal;text-decoration:none;vertical-align:baseline;white-space:pre;white-space:pre-wrap;&quot;&gt;Harry vencer:&lt;/span&gt;&lt;/p&gt;&lt;ul style=&quot;margin-top: 0px; margin-bottom: 0px; padding-inline-start: 48px; line-height: 90%;&quot;&gt;&lt;li aria-level=&quot;1&quot; style=&quot;list-style-type:disc;font-size:11pt;font-family:Arial,sans-serif;color:#000000;background-color:transparent;font-weight:400;font-style:normal;font-variant:normal;text-decoration:none;vertical-align:baseline;white-space:pre;&quot; dir=&quot;ltr&quot;&gt;&lt;p role=&quot;presentation&quot; style=&quot;line-height: 90%; margin-top: 0pt; margin-bottom: 10pt;&quot; dir=&quot;ltr&quot;&gt;&lt;span style=&quot;font-size:11pt;font-family:Arial,sans-serif;color:#000000;background-color:transparent;font-weight:400;font-style:normal;font-variant:normal;text-decoration:none;vertical-align:baseline;white-space:pre;white-space:pre-wrap;&quot;&gt;HaV = 1&lt;/span&gt;&lt;/p&gt;&lt;/li&gt;&lt;/ul&gt;&lt;p style=&quot;line-height: 90%; margin-top: 0pt; margin-bottom: 0px;&quot; dir=&quot;ltr&quot;&gt;&lt;span style=&quot;font-size:11pt;font-family:Arial,sans-serif;color:#000000;background-color:transparent;font-weight:400;font-style:normal;font-variant:normal;text-decoration:none;vertical-align:baseline;white-space:pre;white-space:pre-wrap;&quot;&gt;Harry vencer próximo:&lt;/span&gt;&lt;/p&gt;&lt;p style=&quot;line-height: 90%; margin-top: 0pt; margin-bottom: 0px;&quot; dir=&quot;ltr&quot;&gt;&lt;span style=&quot;font-size:11pt;font-family:Arial,sans-serif;color:#000000;background-color:transparent;font-weight:400;font-style:normal;font-variant:normal;text-decoration:none;vertical-align:baseline;white-space:pre;white-space:pre-wrap;&quot;&gt;&lt;/span&gt;&lt;/p&gt;&lt;ul style=&quot;margin-top: 0px; margin-bottom: 0px; padding-inline-start: 48px; line-height: 90%;&quot;&gt;&lt;li style=&quot;list-style-type: disc; font-size: 11pt; font-family: Arial, sans-serif; background-color: transparent; font-variant-numeric: normal; font-variant-east-asian: normal; font-variant-alternates: normal; font-variant-position: normal; vertical-align: baseline; white-space: pre;&quot; aria-level=&quot;1&quot; dir=&quot;ltr&quot;&gt;&lt;p style=&quot;line-height: 13.2px; margin-top: 0pt; margin-bottom: 10pt;&quot; role=&quot;presentation&quot; dir=&quot;ltr&quot;&gt;&lt;span style=&quot;font-size: 11pt; background-color: transparent; font-variant-numeric: normal; font-variant-east-asian: normal; font-variant-alternates: normal; font-variant-position: normal; vertical-align: baseline; text-wrap: wrap;&quot;&gt;HaVP = 1&lt;/span&gt;&lt;/p&gt;&lt;/li&gt;&lt;/ul&gt;&lt;/span&gt;&lt;/h1&gt;&lt;p&gt;&lt;/p&gt;" style="text;html=1;whiteSpace=wrap;overflow=hidden;rounded=1;shadow=0;textShadow=0;strokeColor=default;arcSize=9;" vertex="1" parent="1">
          <mxGeometry x="530" y="395" width="290" height="430" as="geometry" />
        </mxCell>
        <mxCell id="wo6hQcJHvFdP4VvqB_ml-92" value="&lt;p style=&quot;line-height: 38%;&quot;&gt;&lt;/p&gt;&lt;h1 style=&quot;margin-top: 0px; padding-left: 20px; padding-right: 20px; margin-bottom: 0px; line-height: 28%;&quot;&gt;&lt;span id=&quot;docs-internal-guid-02a18f81-7fff-af73-265d-ae50ddb87528&quot; style=&quot;font-weight:normal;&quot;&gt;&lt;p style=&quot;line-height: 20%; margin-top: 0pt; margin-bottom: 10pt;&quot; dir=&quot;ltr&quot;&gt;&lt;span style=&quot;font-family: Arial, sans-serif; font-size: 17.3333px; font-weight: 700; white-space-collapse: preserve;&quot;&gt;REPRESENTAÇÃO BINÁRIA:&lt;/span&gt;&lt;span style=&quot;background-color: transparent; font-family: Arial, sans-serif; font-size: 11pt; white-space-collapse: preserve;&quot;&gt;&lt;br&gt;&lt;/span&gt;&lt;/p&gt;&lt;p style=&quot;line-height: 20%; margin-top: 0pt; margin-bottom: 10pt;&quot; dir=&quot;ltr&quot;&gt;&lt;span style=&quot;font-family: Arial, sans-serif; font-size: 17.3333px; font-weight: 700; white-space-collapse: preserve;&quot;&gt;(SAÍDA)&lt;/span&gt;&lt;/p&gt;&lt;p style=&quot;line-height: 28%; margin-top: 0pt; margin-bottom: 5px;&quot; dir=&quot;ltr&quot;&gt;&lt;span style=&quot;font-size:11pt;font-family:Arial,sans-serif;color:#000000;background-color:transparent;font-weight:400;font-style:normal;font-variant:normal;text-decoration:none;vertical-align:baseline;white-space:pre;white-space:pre-wrap;&quot;&gt;Ronie ser descongelado:&lt;/span&gt;&lt;/p&gt;&lt;ul style=&quot;margin-top:0;margin-bottom:0;padding-inline-start:48px;&quot;&gt;&lt;li aria-level=&quot;1&quot; style=&quot;list-style-type:disc;font-size:11pt;font-family:Arial,sans-serif;color:#000000;background-color:transparent;font-weight:400;font-style:normal;font-variant:normal;text-decoration:none;vertical-align:baseline;white-space:pre;&quot; dir=&quot;ltr&quot;&gt;&lt;p role=&quot;presentation&quot; style=&quot;line-height: 1.38; margin-top: 0pt; margin-bottom: 13px;&quot; dir=&quot;ltr&quot;&gt;&lt;span style=&quot;font-size:11pt;font-family:Arial,sans-serif;color:#000000;background-color:transparent;font-weight:400;font-style:normal;font-variant:normal;text-decoration:none;vertical-align:baseline;white-space:pre;white-space:pre-wrap;&quot;&gt;R_DESC = 1&lt;/span&gt;&lt;/p&gt;&lt;/li&gt;&lt;/ul&gt;&lt;p style=&quot;line-height: 28%; margin-top: 0pt; margin-bottom: 5px;&quot; dir=&quot;ltr&quot;&gt;&lt;span style=&quot;font-size:11pt;font-family:Arial,sans-serif;color:#000000;background-color:transparent;font-weight:400;font-style:normal;font-variant:normal;text-decoration:none;vertical-align:baseline;white-space:pre;white-space:pre-wrap;&quot;&gt;Ronie ficar congelado:&lt;/span&gt;&lt;/p&gt;&lt;p style=&quot;line-height: 69%; margin-top: 0pt; margin-bottom: 0px;&quot; dir=&quot;ltr&quot;&gt;&lt;span id=&quot;docs-internal-guid-93b23c07-7fff-a6f1-56b6-ead160de76ed&quot;&gt;&lt;/span&gt;&lt;/p&gt;&lt;ul style=&quot;margin-top:0;margin-bottom:0;padding-inline-start:48px;&quot;&gt;&lt;li aria-level=&quot;1&quot; style=&quot;list-style-type:disc;font-size:11pt;font-family:Arial,sans-serif;color:#000000;background-color:transparent;font-weight:400;font-style:normal;font-variant:normal;text-decoration:none;vertical-align:baseline;white-space:pre;&quot; dir=&quot;ltr&quot;&gt;&lt;p role=&quot;presentation&quot; style=&quot;line-height:1.38;margin-top:0pt;margin-bottom:10pt;&quot; dir=&quot;ltr&quot;&gt;&lt;span style=&quot;font-size:11pt;font-family:Arial,sans-serif;color:#000000;background-color:transparent;font-weight:400;font-style:normal;font-variant:normal;text-decoration:none;vertical-align:baseline;white-space:pre;white-space:pre-wrap;&quot;&gt;R_DESC = 0&lt;/span&gt;&lt;/p&gt;&lt;/li&gt;&lt;/ul&gt;&lt;/span&gt;&lt;/h1&gt;&lt;p&gt;&lt;/p&gt;" style="text;html=1;whiteSpace=wrap;overflow=hidden;rounded=1;shadow=0;textShadow=0;strokeColor=default;arcSize=9;" vertex="1" parent="1">
          <mxGeometry x="510" y="30" width="290" height="150" as="geometry" />
        </mxCell>
      </root>
    </mxGraphModel>
  </diagram>
</mxfile>
